<?xml version="1.0" standalone="no"?><!DOCTYPE svg PUBLIC "-//W3C//DTD SVG 1.1//EN" "http://www.w3.org/Graphics/SVG/1.1/DTD/svg11.dtd"><svg xmlns:xlink="http://www.w3.org/1999/xlink" version="1.1" style="font-family:'lucida grande', 'lucida sans unicode', arial, helvetica, sans-serif;font-size:12px;" xmlns="http://www.w3.org/2000/svg" width="600" height="400"><desc>Created with Highcharts 4.2.7</desc><defs><clipPath id="highcharts-9"><rect x="1" y="1" width="513" height="287"></rect></clipPath></defs><rect x="75" y="38" width="515" height="289" fill="#ffffff"></rect><path fill="rgb(255, 255, 255)" fill-opacity=" .5" d="M 75 327.5 L 590 327.5 590 279.5 75 279.5"></path><path fill="rgb(255, 255, 255)" fill-opacity=" .5" d="M 75 231.5 L 590 231.5 590 183.5 75 183.5"></path><path fill="rgb(255, 255, 255)" fill-opacity=" .5" d="M 75 134.5 L 590 134.5 590 86.5 75 86.5"></path><g class="highcharts-grid"></g><g class="highcharts-grid"><path fill="none" d="M 75 327.5 L 590 327.5" stroke="#C0C0C0" stroke-width="1" opacity="1"></path><path fill="none" d="M 75 279.5 L 590 279.5" stroke="#C0C0C0" stroke-width="1" opacity="1"></path><path fill="none" d="M 75 231.5 L 590 231.5" stroke="#C0C0C0" stroke-width="1" opacity="1"></path><path fill="none" d="M 75 183.5 L 590 183.5" stroke="#C0C0C0" stroke-width="1" opacity="1"></path><path fill="none" d="M 75 134.5 L 590 134.5" stroke="#C0C0C0" stroke-width="1" opacity="1"></path><path fill="none" d="M 75 86.5 L 590 86.5" stroke="#C0C0C0" stroke-width="1" opacity="1"></path><path fill="none" d="M 75 37.5 L 590 37.5" stroke="#C0C0C0" stroke-width="1" opacity="1"></path></g><rect x="75" y="38" width="515" height="289" stroke="#026FC1" stroke-width="2" fill="none"></rect><g class="highcharts-axis"><path fill="none" d="M 138.5 327 L 138.5 337" stroke="#C0D0E0" stroke-width="1" opacity="1"></path><path fill="none" d="M 203.5 327 L 203.5 337" stroke="#C0D0E0" stroke-width="1" opacity="1"></path><path fill="none" d="M 267.5 327 L 267.5 337" stroke="#C0D0E0" stroke-width="1" opacity="1"></path><path fill="none" d="M 332.5 327 L 332.5 337" stroke="#C0D0E0" stroke-width="1" opacity="1"></path><path fill="none" d="M 396.5 327 L 396.5 337" stroke="#C0D0E0" stroke-width="1" opacity="1"></path><path fill="none" d="M 460.5 327 L 460.5 337" stroke="#C0D0E0" stroke-width="1" opacity="1"></path><path fill="none" d="M 525.5 327 L 525.5 337" stroke="#C0D0E0" stroke-width="1" opacity="1"></path><path fill="none" d="M 590.5 327 L 590.5 337" stroke="#C0D0E0" stroke-width="1" opacity="1"></path><path fill="none" d="M 74.5 327 L 74.5 337" stroke="#C0D0E0" stroke-width="1" opacity="1"></path><path fill="none" d="M 75 327.5 L 590 327.5" stroke="#C0D0E0" stroke-width="1"></path></g><g class="highcharts-axis"><path fill="none" d="M 75 327.5 L 65 327.5" stroke="#C0D0E0" stroke-width="1" opacity="1"></path><path fill="none" d="M 75 279.5 L 65 279.5" stroke="#C0D0E0" stroke-width="1" opacity="1"></path><path fill="none" d="M 75 231.5 L 65 231.5" stroke="#C0D0E0" stroke-width="1" opacity="1"></path><path fill="none" d="M 75 183.5 L 65 183.5" stroke="#C0D0E0" stroke-width="1" opacity="1"></path><path fill="none" d="M 75 134.5 L 65 134.5" stroke="#C0D0E0" stroke-width="1" opacity="1"></path><path fill="none" d="M 75 86.5 L 65 86.5" stroke="#C0D0E0" stroke-width="1" opacity="1"></path><path fill="none" d="M 75 37.5 L 65 37.5" stroke="#C0D0E0" stroke-width="1" opacity="1"></path><text x="23" text-anchor="middle" transform="translate(0,0) rotate(270 23 182.5)" class=" highcharts-yaxis-title" style="color:#000000;font-size:10px;font-family:'arial', sans-serif;text-transform:none;font-weight:normal;fill:#000000;" y="182.5">probability</text></g><g class="highcharts-series-group"><g class="highcharts-series highcharts-series-0" transform="translate(75,38) scale(1 1)" clip-path="url(#highcharts-9)"><rect x="16.5" y="48.5" width="31" height="241" stroke="#FFFFFF" stroke-width="1" fill="#50B432" rx="0" ry="0"></rect><rect x="80.5" y="48.5" width="31" height="241" stroke="#FFFFFF" stroke-width="1" fill="#ED561B" rx="0" ry="0"></rect><rect x="144.5" y="48.5" width="31" height="241" stroke="#FFFFFF" stroke-width="1" fill="#DDDF00" rx="0" ry="0"></rect><rect x="209.5" y="48.5" width="31" height="241" stroke="#FFFFFF" stroke-width="1" fill="#24CBE5" rx="0" ry="0"></rect><rect x="273.5" y="48.5" width="31" height="241" stroke="#FFFFFF" stroke-width="1" fill="#64E572" rx="0" ry="0"></rect><rect x="338.5" y="48.5" width="31" height="241" stroke="#FFFFFF" stroke-width="1" fill="#FF9655" rx="0" ry="0"></rect><rect x="402.5" y="48.5" width="31" height="241" stroke="#FFFFFF" stroke-width="1" fill="#FFF263" rx="0" ry="0"></rect><rect x="466.5" y="48.5" width="31" height="241" stroke="#FFFFFF" stroke-width="1" fill="#6AF9C4" rx="0" ry="0"></rect></g><g class="highcharts-markers highcharts-series-0" transform="translate(75,38) scale(1 1)" clip-path="none"></g><g class="highcharts-series highcharts-series-1" transform="translate(75,38) scale(1 1)" clip-path="url(#highcharts-9)"></g><g class="highcharts-markers highcharts-series-1" transform="translate(75,38) scale(1 1)" clip-path="none"></g></g><text x="300" text-anchor="middle" class="highcharts-title" style="color:#000000;font-size:10px;font-family:'arial', sans-serif;text-transform:none;fill:#000000;width:536px;" y="17"><tspan>x distribution</tspan></text><g class="highcharts-data-labels highcharts-series-0" transform="translate(75,38) scale(1 1)" opacity="1"><g style="cursor:pointer;" transform="translate(14,26)"><text x="5" style="font-size:10px;font-weight:bold;font-family:'arial', sans-serif;color:#000000;text-shadow:none;fill:#000000;text-rendering:geometricprecision;" y="15"><tspan>0.125</tspan></text></g><g style="cursor:pointer;" transform="translate(78,26)"><text x="5" style="font-size:10px;font-weight:bold;font-family:'arial', sans-serif;color:#000000;text-shadow:none;fill:#000000;text-rendering:geometricprecision;" y="15"><tspan>0.125</tspan></text></g><g style="cursor:pointer;" transform="translate(142,26)"><text x="5" style="font-size:10px;font-weight:bold;font-family:'arial', sans-serif;color:#000000;text-shadow:none;fill:#000000;text-rendering:geometricprecision;" y="15"><tspan>0.125</tspan></text></g><g style="cursor:pointer;" transform="translate(207,26)"><text x="5" style="font-size:10px;font-weight:bold;font-family:'arial', sans-serif;color:#000000;text-shadow:none;fill:#000000;text-rendering:geometricprecision;" y="15"><tspan>0.125</tspan></text></g><g style="cursor:pointer;" transform="translate(271,26)"><text x="5" style="font-size:10px;font-weight:bold;font-family:'arial', sans-serif;color:#000000;text-shadow:none;fill:#000000;text-rendering:geometricprecision;" y="15"><tspan>0.125</tspan></text></g><g style="cursor:pointer;" transform="translate(336,26)"><text x="5" style="font-size:10px;font-weight:bold;font-family:'arial', sans-serif;color:#000000;text-shadow:none;fill:#000000;text-rendering:geometricprecision;" y="15"><tspan>0.125</tspan></text></g><g style="cursor:pointer;" transform="translate(400,26)"><text x="5" style="font-size:10px;font-weight:bold;font-family:'arial', sans-serif;color:#000000;text-shadow:none;fill:#000000;text-rendering:geometricprecision;" y="15"><tspan>0.125</tspan></text></g><g style="cursor:pointer;" transform="translate(464,26)"><text x="5" style="font-size:10px;font-weight:bold;font-family:'arial', sans-serif;color:#000000;text-shadow:none;fill:#000000;text-rendering:geometricprecision;" y="15"><tspan>0.125</tspan></text></g></g><g class="highcharts-data-labels highcharts-series-1" transform="translate(75,38) scale(1 1)" opacity="1"></g><g class="highcharts-legend" transform="translate(259,360)"><g><g><g class="highcharts-legend-item" transform="translate(8,3)"><text x="21" style="color:#333;font-size:9pt;font-weight:normal;cursor:pointer;font-family:'lucida grande','lucida sans unicode',arial,helvetica,sans-serif;text-transform:none;fill:#333;" text-anchor="start" y="15"><tspan>Series 1</tspan></text><rect x="0" y="4" width="16" height="12" fill="#CCC"></rect></g></g></g></g><g class="highcharts-axis-labels highcharts-xaxis-labels"><text x="107.1875" style="color:#000000;cursor:default;font-size:10px;font-family:'arial', sans-serif;text-transform:none;font-weight:normal;fill:#000000;" text-anchor="middle" transform="translate(0,0)" y="345" opacity="1">1</text><text x="171.5625" style="color:#000000;cursor:default;font-size:10px;font-family:'arial', sans-serif;text-transform:none;font-weight:normal;fill:#000000;" text-anchor="middle" transform="translate(0,0)" y="345" opacity="1">2</text><text x="235.9375" style="color:#000000;cursor:default;font-size:10px;font-family:'arial', sans-serif;text-transform:none;font-weight:normal;fill:#000000;" text-anchor="middle" transform="translate(0,0)" y="345" opacity="1">3</text><text x="300.3125" style="color:#000000;cursor:default;font-size:10px;font-family:'arial', sans-serif;text-transform:none;font-weight:normal;fill:#000000;" text-anchor="middle" transform="translate(0,0)" y="345" opacity="1">4</text><text x="364.6875" style="color:#000000;cursor:default;font-size:10px;font-family:'arial', sans-serif;text-transform:none;font-weight:normal;fill:#000000;" text-anchor="middle" transform="translate(0,0)" y="345" opacity="1">5</text><text x="429.0625" style="color:#000000;cursor:default;font-size:10px;font-family:'arial', sans-serif;text-transform:none;font-weight:normal;fill:#000000;" text-anchor="middle" transform="translate(0,0)" y="345" opacity="1">6</text><text x="493.4375" style="color:#000000;cursor:default;font-size:10px;font-family:'arial', sans-serif;text-transform:none;font-weight:normal;fill:#000000;" text-anchor="middle" transform="translate(0,0)" y="345" opacity="1">7</text><text x="557.8125" style="color:#000000;cursor:default;font-size:10px;font-family:'arial', sans-serif;text-transform:none;font-weight:normal;fill:#000000;" text-anchor="middle" transform="translate(0,0)" y="345" opacity="1">8</text></g><g class="highcharts-axis-labels highcharts-yaxis-labels"><text x="60" style="color:#000000;cursor:default;font-size:10px;font-family:'arial', sans-serif;text-transform:none;font-weight:normal;fill:#000000;width:188px;text-overflow:clip;" text-anchor="end" transform="translate(0,0)" y="331" opacity="1"><tspan>0</tspan></text><text x="60" style="color:#000000;cursor:default;font-size:10px;font-family:'arial', sans-serif;text-transform:none;font-weight:normal;fill:#000000;width:188px;text-overflow:clip;" text-anchor="end" transform="translate(0,0)" y="282" opacity="1"><tspan>0.025</tspan></text><text x="60" style="color:#000000;cursor:default;font-size:10px;font-family:'arial', sans-serif;text-transform:none;font-weight:normal;fill:#000000;width:188px;text-overflow:clip;" text-anchor="end" transform="translate(0,0)" y="234" opacity="1"><tspan>0.05</tspan></text><text x="60" style="color:#000000;cursor:default;font-size:10px;font-family:'arial', sans-serif;text-transform:none;font-weight:normal;fill:#000000;width:188px;text-overflow:clip;" text-anchor="end" transform="translate(0,0)" y="186" opacity="1"><tspan>0.075</tspan></text><text x="60" style="color:#000000;cursor:default;font-size:10px;font-family:'arial', sans-serif;text-transform:none;font-weight:normal;fill:#000000;width:188px;text-overflow:clip;" text-anchor="end" transform="translate(0,0)" y="138" opacity="1"><tspan>0.1</tspan></text><text x="60" style="color:#000000;cursor:default;font-size:10px;font-family:'arial', sans-serif;text-transform:none;font-weight:normal;fill:#000000;width:188px;text-overflow:clip;" text-anchor="end" transform="translate(0,0)" y="90" opacity="1"><tspan>0.125</tspan></text><text x="60" style="color:#000000;cursor:default;font-size:10px;font-family:'arial', sans-serif;text-transform:none;font-weight:normal;fill:#000000;width:188px;text-overflow:clip;" text-anchor="end" transform="translate(0,0)" y="42" opacity="1"><tspan>0.15</tspan></text></g><g class="highcharts-tooltip" display="none" style="cursor:default;padding:0;pointer-events:none;white-space:nowrap;" transform="translate(0,0)"><path fill="none" d="M 3.5 0.5 L 13.5 0.5 C 16.5 0.5 16.5 0.5 16.5 3.5 L 16.5 13.5 C 16.5 16.5 16.5 16.5 13.5 16.5 L 3.5 16.5 C 0.5 16.5 0.5 16.5 0.5 13.5 L 0.5 3.5 C 0.5 0.5 0.5 0.5 3.5 0.5"  stroke="black" stroke-opacity="0.049999999999999996" stroke-width="5" transform="translate(1, 1)"></path><path fill="none" d="M 3.5 0.5 L 13.5 0.5 C 16.5 0.5 16.5 0.5 16.5 3.5 L 16.5 13.5 C 16.5 16.5 16.5 16.5 13.5 16.5 L 3.5 16.5 C 0.5 16.5 0.5 16.5 0.5 13.5 L 0.5 3.5 C 0.5 0.5 0.5 0.5 3.5 0.5"  stroke="black" stroke-opacity="0.09999999999999999" stroke-width="3" transform="translate(1, 1)"></path><path fill="none" d="M 3.5 0.5 L 13.5 0.5 C 16.5 0.5 16.5 0.5 16.5 3.5 L 16.5 13.5 C 16.5 16.5 16.5 16.5 13.5 16.5 L 3.5 16.5 C 0.5 16.5 0.5 16.5 0.5 13.5 L 0.5 3.5 C 0.5 0.5 0.5 0.5 3.5 0.5"  stroke="black" stroke-opacity="0.15" stroke-width="1" transform="translate(1, 1)"></path><path fill="rgb(255, 255, 255)" fill-opacity=" 0.85" d="M 3.5 0.5 L 13.5 0.5 C 16.5 0.5 16.5 0.5 16.5 3.5 L 16.5 13.5 C 16.5 16.5 16.5 16.5 13.5 16.5 L 3.5 16.5 C 0.5 16.5 0.5 16.5 0.5 13.5 L 0.5 3.5 C 0.5 0.5 0.5 0.5 3.5 0.5"></path><text x="8" style="font-size:12px;color:#000000;fill:#000000;" y="20"></text></g><text x="590" text-anchor="end" style="cursor:pointer;color:#909090;font-size:9px;fill:#909090;" y="395">meta-chart.com</text></svg>